<?xml version="1.0" encoding="UTF-8" standalone="no"?>
<svg
   xmlns:dc="http://purl.org/dc/elements/1.1/"
   xmlns:cc="http://creativecommons.org/ns#"
   xmlns:rdf="http://www.w3.org/1999/02/22-rdf-syntax-ns#"
   xmlns:svg="http://www.w3.org/2000/svg"
   xmlns="http://www.w3.org/2000/svg"
   width="608.04901mm"
   height="147.2681mm"
   viewBox="0 0 608.04903 147.2681"
   version="1.1"
   id="svg8">
  <defs
     id="defs2" />
  <metadata
     id="metadata5">
    <rdf:RDF>
      <cc:Work
         rdf:about="">
        <dc:format>image/svg+xml</dc:format>
        <dc:type
           rdf:resource="http://purl.org/dc/dcmitype/StillImage" />
        <dc:title></dc:title>
      </cc:Work>
    </rdf:RDF>
  </metadata>
  <g
     id="layer1"
     transform="translate(-54.68028,-80.294004)">
    <g
       id="g1817"
       transform="matrix(1.176181,0,0,1.176181,298.3594,-163.11236)"
       style="fill:#1e54a8;fill-opacity:1;stroke-width:0.290553">
      <path
         id="path1102"
         style="font-style:normal;font-variant:normal;font-weight:normal;font-stretch:normal;font-size:2.82223px;line-height:1.25;font-family:'Agency FB';-inkscape-font-specification:'Agency FB';fill:#1e54a8;fill-opacity:1;stroke-width:5.43284"
         d="m 99.453064,332.09275 38.761326,0.0623 -21.4185,-66.19667 -13.60745,-7e-4 -20.625354,66.12668 h 11.799131 l 3.48478,-11.97797 11.904993,-40.92408 11.80641,40.92478 h -18.61865" />
      <path
         id="path1098"
         style="font-style:normal;font-variant:normal;font-weight:normal;font-stretch:normal;font-size:2.82223px;line-height:1.25;font-family:'Agency FB';-inkscape-font-specification:'Agency FB';fill:#1e54a8;fill-opacity:1;stroke-width:5.43288"
         d="m -73.725733,304.97354 v 27.11073 h 48.682732 l 11.977364,-11.97727 -0.0011,-15.13346 -6.005606,-5.93633 6.005606,-6.00703 v -15.09389 l -11.977364,-11.97727 -36.704306,7e-4 -11.977294,11.97727 h 13.549012 33.489 l 7.546866,7.54694 -7.546866,7.54695 -33.489,-0.002 z m 13.549012,0 h 33.890693 l 7.566654,7.56671 -7.566654,7.56675 h -33.890693 z" />
      <path
         style="font-style:normal;font-variant:normal;font-weight:normal;font-stretch:normal;font-size:2.82223px;line-height:1.25;font-family:'Agency FB';-inkscape-font-specification:'Agency FB';fill:#1e54a8;fill-opacity:1;stroke-width:5.43284"
         d="M 29.706961,320.107 H 61.063112 L 49.086035,332.08427 H 17.729954 m -5.163919,0 1.43e-4,-54.14728 11.977151,-11.97727 35.935904,-10e-4 -11.977364,11.97871 h -23.95854 v 15.09389 H 57.265476 L 45.32267,304.97354 H 24.543329 V 320.107"
         id="path1100" />
      <path
         style="font-style:normal;font-variant:normal;font-weight:normal;font-stretch:normal;font-size:2.82223px;line-height:1.25;font-family:'Agency FB';-inkscape-font-specification:'Agency FB';fill:#1e54a8;fill-opacity:1;stroke-width:5.43284"
         d="m 162.93221,265.95972 h 56.87172 l -11.97737,11.97727 h -32.91705"
         id="path1207" />
      <path
         id="path1104"
         style="font-style:normal;font-variant:normal;font-weight:normal;font-stretch:normal;font-size:2.82223px;line-height:1.25;font-family:'Agency FB';-inkscape-font-specification:'Agency FB';fill:#1e54a8;fill-opacity:1;stroke-width:5.43284"
         d="m 162.92494,274.51588 v 18.51692 c 18.89939,18.90027 -6.68577,-6.68464 11.94209,11.94074 v 0 h 0.0373 26.36755 l 18.51572,18.51508 v -18.51508 l -11.96113,-11.30686 -26.38504,-0.63576 z" />
      <path
         style="font-style:normal;font-variant:normal;font-weight:normal;font-stretch:normal;font-size:2.82223px;line-height:1.25;font-family:'Agency FB';-inkscape-font-specification:'Agency FB';fill:#1e54a8;fill-opacity:1;stroke-width:5.43284"
         d="m 297.81215,277.93699 h -23.56773 v 54.14728 H 260.70757 V 277.93699 H 236.945 l -11.9773,-11.97871 h 84.82217 z"
         id="path1106" />
      <path
         style="fill:#1e54a8;fill-opacity:1;stroke:none;stroke-width:5.43284px;stroke-linecap:butt;stroke-linejoin:miter;stroke-opacity:1"
         d="m 297.81215,265.95759 h 11.9785 l -11.9785,11.978 z"
         id="path1111" />
      <path
         style="font-style:normal;font-variant:normal;font-weight:normal;font-stretch:normal;font-size:2.82223px;line-height:1.25;font-family:'Agency FB';-inkscape-font-specification:'Agency FB';fill:#1e54a8;fill-opacity:1;stroke-width:5.43284"
         d="M 219.79665,332.08427 H 162.92494 L 174.9023,320.107 h 32.91706"
         id="path1746" />
    </g>
    <g
       id="g1841">
      <path
         id="path859"
         style="fill:#1e54a8;fill-opacity:1;stroke:none;stroke-width:0.999999px;stroke-linecap:butt;stroke-linejoin:miter;stroke-opacity:1"
         d="m 454.3457,359.31055 -11.93164,95.03515 h -66.50195 v 50.86719 l 44.47656,44.47461 33.95703,13.31641 33.95508,-13.31641 44.47656,-44.47461 V 454.3457 h -66.50195 z"
         transform="scale(0.26458333)" />
      <path
         style="fill:#1e54a8;fill-opacity:1;stroke:none;stroke-width:0.264583px;stroke-linecap:butt;stroke-linejoin:miter;stroke-opacity:1"
         d="m 122.7956,157.49924 34.62159,-16.99348 6.20085,-22.26671 22.12578,-17.33421 -15.92492,17.47514 -5.919,27.34014 -27.48107,11.55614 -10.00592,7.46921 9.01942,0.9865 10.00593,-9.16036 19.5592,-8.22489 -7.59823,22.60584 -17.78796,17.65876 -16.81567,-16.81567 z"
         id="path861" />
      <path
         style="fill:#1e54a8;fill-opacity:1;stroke:none;stroke-width:0.264583px;stroke-linecap:butt;stroke-linejoin:miter;stroke-opacity:1"
         d="m 137.41946,190.93233 -4.58398,4.58397 -10.03988,-10.03989 v -9.16794 z"
         id="path893" />
      <path
         style="fill:none;stroke:#1e54a8;stroke-width:0.264583px;stroke-linecap:butt;stroke-linejoin:miter;stroke-opacity:1"
         d="m 122.7956,90.757985 6.08356,-6.200857 -0.63418,2.46625 8.80803,-6.623642"
         id="path895" />
      <path
         style="fill:none;stroke:#1e54a8;stroke-width:0.264583px;stroke-linecap:butt;stroke-linejoin:miter;stroke-opacity:1"
         d="m 122.7956,90.757985 6.08356,-6.200857 -0.63418,2.46625 8.80803,-6.623642"
         id="path897" />
      <path
         style="fill:#1e54a8;fill-opacity:1;stroke:none;stroke-width:0.264583px;stroke-linecap:butt;stroke-linejoin:miter;stroke-opacity:1"
         d="m 122.7956,191.23912 5.30644,5.30644 v 25.7101 l -5.30644,5.30644 z"
         id="path903" />
      <path
         style="fill:#1e54a8;fill-opacity:1;stroke:none;stroke-width:0.264583px;stroke-linecap:butt;stroke-linejoin:miter;stroke-opacity:1"
         d="m 132.83549,201.27901 4.28501,4.28502 v 7.67316 l -4.23518,4.23519 z"
         id="path905" />
      <path
         style="fill:#1e54a8;fill-opacity:1;stroke:none;stroke-width:0.264583px;stroke-linecap:butt;stroke-linejoin:miter;stroke-opacity:1"
         d="m 103.00464,190.93233 4.58398,4.58397 10.03988,-10.03989 v -9.16794 z"
         id="path913" />
      <path
         style="fill:none;stroke:#1e54a8;stroke-width:0.264583px;stroke-linecap:butt;stroke-linejoin:miter;stroke-opacity:1"
         d="m 117.6285,90.757985 -6.08356,-6.200857 0.63418,2.46625 -8.80803,-6.623642"
         id="path915" />
      <path
         style="fill:none;stroke:#1e54a8;stroke-width:0.264583px;stroke-linecap:butt;stroke-linejoin:miter;stroke-opacity:1"
         d="m 117.6285,90.757985 -6.08356,-6.200857 0.63418,2.46625 -8.80803,-6.623642"
         id="path917" />
      <path
         style="fill:#1e54a8;fill-opacity:1;stroke:none;stroke-width:0.264583px;stroke-linecap:butt;stroke-linejoin:miter;stroke-opacity:1"
         d="m 117.6285,191.23912 -5.30644,5.30644 v 25.7101 l 5.30644,5.30644 z"
         id="path919" />
      <path
         style="fill:#1e54a8;fill-opacity:1;stroke:none;stroke-width:0.264583px;stroke-linecap:butt;stroke-linejoin:miter;stroke-opacity:1"
         d="m 107.58861,201.27901 -4.28501,4.28502 v 7.67316 l 4.23518,4.23519 z"
         id="path921" />
      <path
         style="fill:#ffe680;stroke:none;stroke-width:0.254;stroke-miterlimit:4;stroke-dasharray:none;stroke-dashoffset:0"
         id="path849"
         d="m 120.21205,124.50586 2.49936,5.80042 6.28888,0.5846 -4.74419,4.16946 1.38738,6.16173 -5.43143,-3.22355 -5.43143,3.22355 1.38738,-6.16173 -4.74418,-4.16946 6.28887,-0.5846 z" />
      <path
         style="fill:#1e54a8;fill-opacity:1;stroke:none;stroke-width:0.264583px;stroke-linecap:butt;stroke-linejoin:miter;stroke-opacity:1"
         d="m 117.6285,157.49924 -34.62159,-16.99348 -6.20085,-22.26671 -22.12578,-17.33421 15.92492,17.47514 5.919,27.34014 27.48107,11.55614 10.00592,7.46921 -9.01942,0.9865 -10.00593,-9.16036 -19.5592,-8.22489 7.59823,22.60584 17.78796,17.65876 16.81567,-16.81567 z"
         id="path1823" />
      <path
         style="fill:none;stroke:none;stroke-width:0.264583px;stroke-linecap:butt;stroke-linejoin:miter;stroke-opacity:1"
         d="m 126.41291,164.74547 10.00592,-7.46921 15.25832,-6.41632 -16.24482,14.87203 z"
         id="path36" />
    </g>
  </g>
</svg>
